inDegrees=yes
name=ik_S52_A09_T02
DataType=double
version=3
OpenSimVersion=4.3-2021-08-27-4bc7ad9
endheader
time	pelvis_tilt	pelvis_list	pelvis_rotation	pelvis_tx	pelvis_ty	pelvis_tz	hip_flexion_r	hip_adduction_r	hip_rotation_r	knee_angle_r	knee_angle_r_beta	ankle_angle_r	subtalar_angle_r	mtp_angle_r	hip_flexion_l	hip_adduction_l	hip_rotation_l	knee_angle_l	knee_angle_l_beta	ankle_angle_l	subtalar_angle_l	mtp_angle_l	lumbar_extension	lumbar_bending	lumbar_rotation	arm_flex_r	arm_add_r	arm_rot_r	elbow_flex_r	pro_sup_r	wrist_flex_r	wrist_dev_r	arm_flex_l	arm_add_l	arm_rot_l	elbow_flex_l	pro_sup_l	wrist_flex_l	wrist_dev_l
24.65999999999956	-4.858887225587326	-1.792128639672806	20.42957780085026	0	0.9399999999999999	0	38.37187604122774	-11.5854936856136	-10.38521464979297	50.15554879728683	0.8753794646573371	0	0	0	38.37187604122774	-11.5854936856136	-10.38521464979297	50.15554879728683	0.8753794646573371	0	0	0	-3.225957667549498	-2.512112086055459	4.907395268892891	57.69107279084894	2.047224614422981	5.266797877132094	41.70895684606604	126.9475165205456	0	0	57.44749561983071	-18.53712148004927	4.555080354889113	53.12017154458606	92.79680116677076	0	0
24.67999999999956	-4.844141114020827	-1.810285878580945	20.52337103502176	0	0.9399999999999999	0	38.37547485841934	-11.58251231119577	-10.38475030037496	50.15730932446571	0.8754101916531796	0	0	0	38.37547485841934	-11.58251231119577	-10.38475030037496	50.15730932446571	0.8754101916531796	0	0	0	-3.219811257407259	-2.531517281821722	4.871014983350914	57.70685025390975	1.983045521041424	5.226406067156414	41.70138649238221	126.9324234491567	0	0	57.7725319625665	-18.78698293613347	4.450049157133098	54.1212893949498	91.5816934657411	0	0
24.69999999999956	-4.839537474899394	-1.818379349273052	20.53324265399693	0	0.9399999999999999	0	38.37803146000155	-11.58046910747059	-10.38442805839457	50.1586020958058	0.8754327547695395	0	0	0	38.37803146000155	-11.58046910747059	-10.38442805839457	50.1586020958058	0.8754327547695395	0	0	0	-3.217770651286804	-2.541191478125563	4.889821414907408	57.75170734499664	1.921084497492399	5.217630436592922	41.74133210539917	126.9896306410418	0	0	57.89651619385747	-18.99513793093498	4.628010796739741	54.8569811548581	90.16220845398034	0	0
24.71999999999956	-4.843636884928956	-1.8037803596497	20.49496169788061	0	0.9399999999999999	0	38.38077399281361	-11.57827029749584	-10.38408161610208	50.15998397266472	0.8754568730705847	0	0	0	38.38077399281361	-11.57827029749584	-10.38408161610208	50.15998397266472	0.8754568730705847	0	0	0	-3.214668545625374	-2.530766803200164	4.96441632877	57.79052319537328	1.80853848187038	5.300004745778589	41.77298112916743	127.03119121385	0	0	57.90738471416581	-19.09302336735445	4.803209919675415	55.66887256403216	89.37667766102177	0	0
24.73999999999956	-4.847526598732597	-1.811983321356926	20.57016483569088	0	0.9399999999999999	0	38.38313935711486	-11.57635668059447	-10.38378095830256	50.16116410020177	0.8754774701816997	0	0	0	38.38313935711486	-11.57635668059447	-10.38378095830256	50.16116410020177	0.8754774701816997	0	0	0	-3.22190364369075	-2.535440345570975	4.950959234949804	57.79733794687808	1.769064910459363	5.263335766245565	41.82971696501602	127.1232058763782	0	0	58.01001599292169	-19.14455589168069	4.900590730094559	55.97232590042866	88.865281694892	0	0
24.75999999999956	-4.854134705001138	-1.830046287719858	20.66767278298716	0	0.9399999999999999	0	38.38686440937284	-11.57329795937734	-10.38330280820379	50.16299613927288	0.8755094452955157	0	0	0	38.38686440937284	-11.57329795937734	-10.38330280820379	50.16299613927288	0.8755094452955157	0	0	0	-3.236995528394615	-2.54414612280547	4.879107186771465	57.76006721084591	1.68082967722581	5.171634649754516	41.95701579776301	127.0714461943382	0	0	58.13976115998648	-19.44278543877502	4.760309672102967	56.70562479080252	87.76627830023557	0	0
24.77999999999956	-4.873965687521578	-1.843929758057511	20.78992761703564	0	0.9399999999999999	0	38.38975526066308	-11.57091330707778	-10.38293053247874	50.16441007810721	0.8755341231835966	0	0	0	38.38975526066308	-11.57091330707778	-10.38293053247874	50.16441007810721	0.8755341231835966	0	0	0	-3.262393830803161	-2.546067513456456	4.830102527375247	57.78817677285815	1.590548465936503	4.970075706768759	42.00689198233977	127.1391456895103	0	0	58.19683510473222	-19.78784106167555	4.372257945178179	57.32706420871322	87.31616280216116	0	0
24.79999999999956	-4.861761508645965	-1.841262961008233	20.87177536322477	0	0.9399999999999999	0	38.39265319219072	-11.56852626996891	-10.382557635664	50.16582825493704	0.8755588750386526	0	0	0	38.39265319219072	-11.56852626996891	-10.382557635664	50.16582825493704	0.8755588750386526	0	0	0	-3.250264326827567	-2.54801479664017	4.839943511410508	57.77401851421647	1.523738255295782	4.829892076419631	41.9939243741802	127.1089540368037	0	0	58.24383375151227	-19.85132327338436	4.298398205799814	57.7347102213386	87.2361422383883	0	0
24.81999999999956	-4.865678902822385	-1.827220183923808	21.12332984409856	0	0.9399999999999999	0	38.39672216859664	-11.56516481047099	-10.38203292961048	50.16781177072698	0.8755934939199523	0	0	0	38.39672216859664	-11.56516481047099	-10.38203292961048	50.16781177072698	0.8755934939199523	0	0	0	-3.253778395873069	-2.521789124445953	4.673444175932758	57.78651039296138	1.411069052620657	4.791018622444511	42.00902928046435	127.0176578781529	0	0	57.91159583688491	-20.7026957764598	2.530971252076405	58.85985663642354	87.91598567986901	0	0
24.83999999999956	-4.872133941960449	-1.825681592538689	21.24473762383128	0	0.9399999999999999	0	38.39945106226061	-11.5629154768972	-10.38168147791677	50.16914356964063	0.8756167381959701	0	0	0	38.39945106226061	-11.5629154768972	-10.38168147791677	50.16914356964063	0.8756167381959701	0	0	0	-3.261622106292708	-2.513135455448689	4.612298138006096	57.80059142086037	1.370194820378527	4.774786523464549	42.06676919729134	126.9890254692734	0	0	57.68163338384446	-21.00748344595382	1.683508768284112	59.14850323023538	88.12384556663514	0	0
24.85999999999956	-4.876296086334278	-1.835720282075772	21.43093285151213	0	0.9399999999999999	0	38.40171141401184	-11.56105680999687	-10.38139077938006	50.17024834660057	0.8756360201914213	0	0	0	38.40171141401184	-11.56105680999687	-10.38139077938006	50.17024834660057	0.8756360201914213	0	0	0	-3.27133843830804	-2.515602766927273	4.547196599459342	57.79206515875691	1.232191897639064	4.642263567621864	42.09521711095054	127.0061161360768	0	0	57.58894697758106	-21.46511884866957	0.7482815264363691	59.5962214031621	88.63196205854418	0	0
24.87999999999956	-4.882262573555449	-1.846912083439942	21.56707815146643	0	0.9399999999999999	0	38.40404959577788	-11.5591352453946	-10.38109014302333	50.17139101706293	0.8756559635532547	0	0	0	38.40404959577788	-11.5591352453946	-10.38109014302333	50.17139101706293	0.8756559635532547	0	0	0	-3.284740246976252	-2.516477345755656	4.441884570851919	57.79666887909065	1.222509103977472	4.616336362425281	42.14168226548644	127.0049839612722	0	0	57.38332725514434	-21.97193383362785	-0.1578883796144607	59.82301174375682	89.61542338936172	0	0
24.89999999999956	-4.882413594008367	-1.841741432129497	21.76397749896105	0	0.9399999999999999	0	38.40731110761998	-11.55645928581412	-10.38067116229635	50.17298595764942	0.8756838005178627	0	0	0	38.40731110761998	-11.55645928581412	-10.38067116229635	50.17298595764942	0.8756838005178627	0	0	0	-3.287745535392298	-2.501940739927122	4.315997419132969	57.77895307693772	1.168937351062953	4.288818461722742	42.11928144675458	127.236454611462	0	0	57.05638117568895	-22.45657069808376	-1.014696422779114	60.02297401200275	91.20689952795166	0	0
24.91999999999956	-4.870582528110133	-1.834245173356665	21.87505728553173	0	0.9399999999999999	0	38.40973395290816	-11.55447212488541	-10.38035993953252	50.1741702194942	0.8757044697862598	0	0	0	38.40973395290816	-11.55447212488541	-10.38035993953252	50.1741702194942	0.8757044697862598	0	0	0	-3.277679275756443	-2.49176748900965	4.211556117891752	57.77924449839222	1.177761814587037	4.281163944947382	42.20215207970399	127.3438130835925	0	0	56.64212771567117	-23.03383961559841	-1.735500386309811	60.37361930111489	91.92695421494903	0	0
24.93999999999956	-4.863801908652174	-1.812252251799075	22.04371421559009	0	0.9399999999999999	0	38.41232091018194	-11.55235227648148	-10.38002777919619	50.17543478646259	0.8757265406434701	0	0	0	38.41232091018194	-11.55235227648148	-10.38002777919619	50.17543478646259	0.8757265406434701	0	0	0	-3.267326039280773	-2.464674901940112	4.085596449121882	57.78029265294442	1.077733743170085	4.306034280136357	42.279913929943	127.4094253258765	0	0	56.16107977873863	-23.66799516822206	-2.720102914111633	60.48306973671681	93.19200717128345	0	0
24.95999999999956	-4.897466539307955	-1.783791362909775	22.21724876599795	0	0.9399999999999999	0	38.41475211867197	-11.55036205536013	-10.37971577620821	50.17662349724533	0.8757472875604829	0	0	0	38.41475211867197	-11.55036205536013	-10.37971577620821	50.17662349724533	0.8757472875604829	0	0	0	-3.289636249420142	-2.422691724924881	4.052689344858791	57.76524725503467	0.8748259890177058	4.222052114752946	42.41458011240267	127.5147120910703	0	0	55.71645586100192	-23.9592637112316	-3.527308256220428	60.79042359912288	93.37099972768189	0	0
24.97999999999956	-4.904810968054814	-1.788598802954219	22.34875733332584	0	0.9399999999999999	0	38.41722547226629	-11.54833981373878	-10.37939857018836	50.17783330065753	0.8757684026133276	0	0	0	38.41722547226629	-11.54833981373878	-10.37939857018836	50.17783330065753	0.8757684026133276	0	0	0	-3.302466597339879	-2.415343757564337	3.931957316475758	57.7314501537324	0.904291207983742	4.086536928915718	42.48885696034799	127.5535741312511	0	0	55.18583276817949	-24.45082191374426	-4.528272700625645	60.85162536359788	94.06231968617178	0	0
24.99999999999956	-4.911118264582164	-1.767998292507745	22.46255716217083	0	0.9399999999999999	0	38.42028596441734	-11.54584799415551	-10.37900706897897	50.17933491565817	0.8757946107391862	0	0	0	38.42028596441734	-11.54584799415551	-10.37900706897897	50.17933491565817	0.8757946107391862	0	0	0	-3.303592628883783	-2.386360452356311	3.83291488174226	57.72297151063311	0.8823906033133014	4.084695694714537	42.51826636197676	127.3095028893208	0	0	55.19334999752092	-24.56700314543079	-4.846970688851992	60.3259232062923	95.51960164883097	0	0
